<svg height="512" viewBox="0 0 512 512" width="512" xmlns="http://www.w3.org/2000/svg"><path d="M288.414 313.118h-44.145l6.76-5.85a7.5 7.5 0 0 0-9.815-11.344l-19.409 16.796c-2.293 2.019-3.607 4.897-3.607 7.899 0 3.001 1.316 5.879 3.655 7.938l19.36 16.753a7.472 7.472 0 0 0 4.904 1.828 7.5 7.5 0 0 0 4.911-13.172l-6.76-5.849h44.145a7.5 7.5 0 0 0 .001-14.999zM292.223 211.715l-19.301-16.756a7.501 7.501 0 0 0-9.833 11.328l6.747 5.857h-44.152c-4.142 0-7.5 3.357-7.5 7.5s3.358 7.5 7.5 7.5h44.164l-6.755 5.854a7.501 7.501 0 0 0 9.824 11.336l19.318-16.742c2.36-2.036 3.703-4.952 3.686-8.002-.017-3.016-1.364-5.882-3.698-7.875zM492.868 315.083c-10.623-7.66-23.725-11.157-36.396-14.539-1.457-.389-2.906-.775-4.329-1.163-2.564-.703-4.334-3.974-5.618-7.081 22.274-14.82 38.943-40.636 38.943-63.102v-20.467c0-25.059-7.993-46.314-23.114-61.471-13.512-13.543-31.703-21.175-51.22-21.488a4.84 4.84 0 0 0-.241 0c-19.505.313-37.687 7.945-51.196 21.489-15.118 15.157-23.109 36.413-23.109 61.47v20.467c0 22.476 16.669 48.292 38.941 63.106-1.286 3.105-3.059 6.371-5.634 7.075-1.437.392-2.889.779-4.349 1.17-12.66 3.382-25.751 6.879-36.367 14.539-12.867 9.284-19.122 22.554-19.122 40.567v17.66c0 7.121 5.781 12.914 12.886 12.914h71.915c4.142 0 7.5-3.357 7.5-7.5s-3.358-7.5-7.5-7.5h-69.801v-15.574c0-23.405 12.758-31.272 34.339-37.794l38.62 22.641c4.735 3.039 8.875 4.559 13.014 4.559 4.14 0 8.278-1.52 13.015-4.56l38.596-22.642C484.234 324.38 497 332.248 497 355.656v15.574h-68.866c-4.142 0-7.5 3.357-7.5 7.5s3.358 7.5 7.5 7.5h70.952c7.121 0 12.914-5.793 12.914-12.914v-17.66c0-18.018-6.258-31.29-19.132-40.573zm-81.855-174.311c26.697.484 55.249 19.147 59.032 58.861-5.106-1.792-8.006-4.752-11.021-7.829-3.862-3.941-8.877-9.06-17.709-9.06-2.095 0-4.407.288-6.968.949-3.441.884-6.37 1.664-8.909 2.34-7.52 2.003-11.293 3.009-14.425 3.009-3.105 0-6.871-1.003-14.372-3.002a989.551 989.551 0 0 0-8.929-2.346c-13.377-3.446-19.92 3.236-24.698 8.115-3.01 3.074-5.906 6.031-11.005 7.823 3.782-39.714 32.32-58.376 59.004-58.86zm-59.426 88.426v-13.955c11.875-2.49 17.934-8.638 22.145-12.939 4.248-4.337 5.258-5.365 10.244-4.083 3.402.874 6.297 1.646 8.804 2.313 8.489 2.262 13.165 3.508 18.234 3.508 5.095 0 9.78-1.248 18.286-3.514a953.115 953.115 0 0 1 8.788-2.309c4.966-1.282 5.976-.252 10.223 4.083 4.215 4.301 10.279 10.451 22.158 12.94v13.955c0 21.599-21.16 48.396-45.286 57.347-10.451 3.884-17.859 3.882-28.315-.002-24.122-8.94-45.281-35.737-45.281-57.344zm64.73 98.445a6.06 6.06 0 0 0-.277.171c-4.591 2.967-5.435 2.967-10.025 0a6.75 6.75 0 0 0-.279-.172l-27.05-15.858c5.131-3.04 8.15-7.992 10.09-12.318.953.401 1.91.782 2.873 1.139 6.883 2.558 13.131 3.836 19.38 3.836 6.248 0 12.496-1.278 19.375-3.835a70.036 70.036 0 0 0 2.874-1.141c1.937 4.324 4.952 9.276 10.075 12.318zM182.795 315.088c-10.616-7.66-23.708-11.157-36.367-14.539-1.46-.391-2.912-.778-4.34-1.168-2.562-.702-4.338-3.982-5.628-7.088 22.265-14.817 38.925-40.626 38.925-63.095v-20.467c0-25.06-7.987-46.315-23.098-61.469-13.506-13.545-31.691-21.177-51.208-21.49a4.84 4.84 0 0 0-.241 0c-19.516.313-37.702 7.945-51.207 21.49-15.111 15.153-23.099 36.409-23.099 61.469v20.467c0 22.471 16.662 48.283 38.924 63.097-1.289 3.106-3.063 6.384-5.618 7.085-1.437.392-2.889.779-4.35 1.17-12.66 3.382-25.75 6.879-36.367 14.539C6.255 324.372 0 337.642 0 355.656v17.66c0 7.121 5.781 12.914 12.886 12.914h70.923c4.142 0 7.5-3.357 7.5-7.5s-3.358-7.5-7.5-7.5H15v-15.574c0-23.405 12.758-31.272 34.339-37.795l38.62 22.641c4.73 3.035 8.865 4.554 13 4.554s8.269-1.519 13-4.554l38.62-22.641c21.582 6.523 34.339 14.39 34.339 37.794v15.574h-67.675c-4.142 0-7.5 3.357-7.5 7.5s3.358 7.5 7.5 7.5h69.789c7.105 0 12.886-5.793 12.886-12.914v-17.66c-.001-18.013-6.256-31.283-19.123-40.567zm-81.837-174.316c26.683.483 55.219 19.147 59.004 58.857-5.088-1.792-7.982-4.745-10.992-7.816-4.783-4.881-11.336-11.57-24.707-8.119-3.476.893-6.427 1.68-8.981 2.36-7.462 1.989-11.207 2.988-14.325 2.988-3.105 0-6.87-1.003-14.37-3.001a964.395 964.395 0 0 0-8.931-2.347c-13.379-3.446-19.92 3.236-24.698 8.115-3.01 3.074-5.906 6.031-11.005 7.823 3.783-39.714 32.321-58.377 59.005-58.86zm-59.426 88.426v-13.955c11.875-2.489 17.934-8.638 22.145-12.939 4.247-4.337 5.257-5.365 10.243-4.083 3.403.875 6.299 1.646 8.807 2.314 8.487 2.261 13.163 3.507 18.231 3.507 5.083 0 9.738-1.241 18.189-3.495a967.14 967.14 0 0 1 8.854-2.327c4.986-1.282 5.998-.253 10.256 4.091 4.211 4.298 10.27 10.441 22.127 12.931v13.956c0 21.607-21.159 48.404-45.291 57.349-10.436 3.886-17.834 3.886-28.282-.004-24.12-8.941-45.279-35.738-45.279-57.345zm64.704 98.444a6.143 6.143 0 0 0-.279.172c-4.578 2.959-5.419 2.959-9.997 0a6.75 6.75 0 0 0-.279-.172l-27.056-15.861c5.122-3.045 8.137-8.005 10.077-12.323.957.403 1.919.787 2.886 1.145 6.881 2.563 13.127 3.844 19.373 3.844 6.243 0 12.485-1.28 19.357-3.84.971-.36 1.937-.745 2.897-1.15 1.939 4.317 4.955 9.276 10.078 12.323z"/></svg>