<svg height="512" viewBox="0 0 512 512" width="512" xmlns="http://www.w3.org/2000/svg"><path d="M136.801 343.455h-5.565c11.738-10.622 19.126-25.968 19.126-43.008 0-31.986-26.022-58.008-58.008-58.008s-58.008 26.022-58.008 58.008c0 17.04 7.388 32.386 19.126 43.008h-5.565C21.49 343.455 0 364.946 0 391.362v44.447a7.5 7.5 0 0 0 7.5 7.5h169.707a7.5 7.5 0 0 0 7.5-7.5v-44.447c0-26.416-21.49-47.907-47.906-47.907zm-87.455-43.008c0-23.715 19.293-43.008 43.008-43.008s43.008 19.293 43.008 43.008c0 23.714-19.293 43.008-43.008 43.008s-43.008-19.293-43.008-43.008zm120.361 127.862H142.28v-12.704c0-4.142-3.357-7.5-7.5-7.5s-7.5 3.358-7.5 7.5v12.704H57.427v-12.704c0-4.142-3.357-7.5-7.5-7.5s-7.5 3.358-7.5 7.5v12.704H15v-36.947c0-18.145 14.762-32.907 32.906-32.907h88.895c18.145 0 32.906 14.762 32.906 32.907zM464.09 406.09h-5.567c11.741-10.622 19.131-25.97 19.131-43.013 0-31.986-26.022-58.008-58.008-58.008s-58.008 26.022-58.008 58.008c0 17.043 7.39 32.39 19.131 43.013h-5.57c-26.418 0-47.91 21.488-47.91 47.9v44.45a7.5 7.5 0 0 0 7.5 7.5h67.36c4.143 0 7.5-3.358 7.5-7.5s-3.357-7.5-7.5-7.5H384.72v-12.704c0-4.142-3.357-7.5-7.5-7.5s-7.5 3.358-7.5 7.5v12.704h-27.43v-36.95c0-18.141 14.764-32.9 32.91-32.9h88.89c18.146 0 32.91 14.759 32.91 32.9v36.95h-27.427v-12.704c0-4.142-3.357-7.5-7.5-7.5s-7.5 3.358-7.5 7.5v12.704H437.15c-4.143 0-7.5 3.358-7.5 7.5s3.357 7.5 7.5 7.5h67.35a7.5 7.5 0 0 0 7.5-7.5v-44.45c0-26.412-21.492-47.9-47.91-47.9zm-87.451-43.013c0-23.714 19.293-43.008 43.008-43.008s43.008 19.293 43.008 43.008-19.293 43.008-43.008 43.008-43.008-19.293-43.008-43.008z"/><path d="M484.3 68.69h-88.1c-4.143 0-7.5 3.358-7.5 7.5s3.357 7.5 7.5 7.5h88.1c7.003 0 12.7 5.697 12.7 12.7v161.63c0 7.003-5.697 12.7-12.7 12.7H340.85a7.5 7.5 0 0 0-7.5 7.5v22.3l-27.596-27.603a7.497 7.497 0 0 0-5.304-2.197h-58.59c-7.009 0-12.71-5.697-12.71-12.7V96.39c0-7.003 5.701-12.7 12.71-12.7H361.2c4.143 0 7.5-3.358 7.5-7.5s-3.357-7.5-7.5-7.5h-63.35V33.76c0-15.273-12.431-27.7-27.71-27.7H27.7C12.427 6.06 0 18.486 0 33.76v161.63c0 15.274 12.427 27.7 27.7 27.7h42.07c4.143 0 7.5-3.358 7.5-7.5s-3.357-7.5-7.5-7.5H27.7c-7.003 0-12.7-5.697-12.7-12.7V33.76c0-7.002 5.697-12.7 12.7-12.7h242.44c7.009 0 12.71 5.697 12.71 12.7v34.93h-40.99c-15.279 0-27.71 12.426-27.71 27.7v111.7h-2.601a7.505 7.505 0 0 0-5.304 2.197L178.65 237.89v-22.3a7.5 7.5 0 0 0-7.5-7.5h-66.38c-4.143 0-7.5 3.358-7.5 7.5s3.357 7.5 7.5 7.5h58.881V256a7.498 7.498 0 0 0 7.498 7.5 7.5 7.5 0 0 0 5.306-2.197l37.696-37.706v34.423c0 15.274 12.431 27.7 27.71 27.7h55.482l38.203 38.212a7.496 7.496 0 0 0 8.174 1.626 7.5 7.5 0 0 0 4.63-6.929v-32.91H484.3c15.273 0 27.7-12.426 27.7-27.7V96.39c0-15.274-12.427-27.7-27.7-27.7z"/></svg>