<svg height="512" viewBox="0 0 512.019 512.019" width="512" xmlns="http://www.w3.org/2000/svg"><path d="M80.039 492.354V27.708C80.039 12.43 92.469 0 107.747 0H135.1a7.5 7.5 0 0 1 0 15h-27.353c-7.007 0-12.708 5.701-12.708 12.708v464.647c-.001 3.678 4.088 5.91 7.182 3.853l146.253-97.059a13.622 13.622 0 0 1 15.072.001l77.783 51.62a7.5 7.5 0 1 1-8.294 12.498l-77.026-51.117-145.494 96.555c-13.128 8.713-30.477-.806-30.476-16.352zM412.321 512c-3.831 0-7.571-1.139-10.817-3.293l-39.305-26.084a7.5 7.5 0 1 1 8.294-12.498C413.386 498.59 410.456 497 412.321 497c2.241 0 4.659-1.776 4.659-4.645V27.708c0-7.007-5.701-12.708-12.708-12.708H170.1a7.5 7.5 0 0 1 0-15h234.171c15.278 0 27.708 12.43 27.708 27.708v464.647c.001 10.832-8.818 19.645-19.658 19.645z"/><path d="M314.977 319.775c-3.119 0-6.254-.752-9.151-2.275l-47.665-25.059a4.62 4.62 0 0 0-4.304 0L206.193 317.5c-6.661 3.501-14.58 2.929-20.668-1.494-6.087-4.423-9.079-11.778-7.807-19.194l9.104-53.076a4.627 4.627 0 0 0-1.33-4.094l-38.562-37.588c-5.389-5.252-7.292-12.961-4.966-20.118s8.396-12.274 15.843-13.356l53.291-7.744a4.625 4.625 0 0 0 3.483-2.531l23.832-48.29c3.331-6.748 10.074-10.939 17.599-10.939s14.268 4.192 17.599 10.939l23.832 48.29a4.626 4.626 0 0 0 3.482 2.53l53.292 7.744c7.446 1.082 13.517 6.199 15.842 13.356 2.325 7.156.422 14.865-4.966 20.118l-38.562 37.588a4.627 4.627 0 0 0-1.33 4.095l9.104 53.075c1.272 7.417-1.72 14.771-7.807 19.194-3.443 2.5-7.468 3.77-11.521 3.77zm-58.967-42.866c3.137 0 6.273.751 9.132 2.254l47.666 25.059c2.295 1.208 4.171.157 4.871-.352.699-.508 2.278-1.966 1.84-4.523l-9.104-53.075a19.622 19.622 0 0 1 5.645-17.371l38.562-37.588c1.858-1.812 1.437-3.919 1.17-4.741s-1.166-2.774-3.733-3.147l-53.292-7.744a19.622 19.622 0 0 1-14.776-10.735l-23.833-48.291c-1.148-2.327-3.283-2.578-4.147-2.578s-2.999.251-4.147 2.578l-23.832 48.29a19.62 19.62 0 0 1-14.777 10.735l-53.291 7.744c-2.568.373-3.466 2.325-3.733 3.147s-.688 2.93 1.17 4.741l38.562 37.588a19.624 19.624 0 0 1 5.645 17.37l-9.104 53.077c-.438 2.557 1.141 4.015 1.84 4.523.7.509 2.575 1.561 4.871.352l47.665-25.059a19.611 19.611 0 0 1 9.13-2.254z"/></svg>