<svg height="512" viewBox="0 0 24 24" width="512" xmlns="http://www.w3.org/2000/svg"><path d="M19.499 23.999a1.5 1.5 0 0 1-.864-.275l-6.347-4.48a.502.502 0 0 0-.576 0l-6.347 4.48a1.493 1.493 0 0 1-1.555.106A1.496 1.496 0 0 1 3 22.498V2.5C3 1.121 4.122 0 5.5 0h13C19.878 0 21 1.121 21 2.5v19.998a1.497 1.497 0 0 1-1.501 1.501zM12 18.152c.303 0 .606.092.865.274l6.347 4.48a.496.496 0 0 0 .518.035.49.49 0 0 0 .27-.443V2.5c0-.827-.673-1.5-1.5-1.5h-13C4.673 1 4 1.673 4 2.5v19.998c0 .19.101.356.271.444a.492.492 0 0 0 .518-.035l6.347-4.48c.258-.183.561-.275.864-.275z"/><path d="M12 16a.5.5 0 0 1-.364-.157l-4.69-4.985c-1.255-1.334-1.255-3.506 0-4.84 1.235-1.312 3.403-1.312 4.637 0l.417.444.417-.444A3.162 3.162 0 0 1 14.736 5c.877 0 1.701.361 2.318 1.018 1.255 1.334 1.255 3.506 0 4.84l-4.69 4.985A.5.5 0 0 1 12 16zM9.264 6a2.17 2.17 0 0 0-1.59.703c-.9.956-.9 2.513 0 3.469L12 14.771l4.326-4.599c.9-.956.9-2.513 0-3.469A2.17 2.17 0 0 0 14.736 6c-.599 0-1.164.249-1.59.703l-.782.831a.516.516 0 0 1-.729 0l-.782-.831A2.167 2.167 0 0 0 9.264 6z"/></svg>