<svg xmlns="http://www.w3.org/2000/svg" viewBox="0 0 345.458 345.458"><path d="M264.085 92.08l-25.04-5.8-13.32-21.72a18.085 18.085 0 0 0-6.366-6.449c-8.572-5.121-19.673-2.324-24.794 6.249l-13.24 21.96-24.68 5.72a18.239 18.239 0 0 0-8 4c-7.43 6.557-8.181 17.88-1.68 25.36l16.84 19.4-2.24 26.68c-.03 1.165.05 2.33.24 3.48a18.057 18.057 0 0 0 1.179 4.147c3.857 9.21 14.45 13.55 23.661 9.693l23.72-10.04 22.28 9.44a18.156 18.156 0 0 0 10.071 2.003c9.989-.904 17.353-9.735 16.449-19.723l-2.24-25.68 16.4-18.56a18.182 18.182 0 0 0 2.76-4 18.055 18.055 0 0 0 1.728-4.656c2.147-9.729-3.999-19.357-13.728-21.504zm-2.08 17.92c-.16.68-.44.84-.88 1.36l-18.64 21.44a8 8 0 0 0-1.84 6.16l2.48 28.88a1.996 1.996 0 0 1-.44 1.44c-1.16 1.48-2.48.4-3.72 0l-25.4-10.76a7.997 7.997 0 0 0-6.24 0l-26.84 11.4a2 2 0 0 1-2.56-1.04 4.01 4.01 0 0 1 0-1.64l2.48-28.36a7.999 7.999 0 0 0-2.36-6.44l-18.68-21.52a1.959 1.959 0 0 1 1-3.159l28.2-6.52a7.999 7.999 0 0 0 5.28-4l14.84-24.84c.265-.443.698-.76 1.2-.88a1.963 1.963 0 0 1 1.48.2c.398.271.716.644.92 1.08l14.76 24.72a8 8 0 0 0 5.12 3.56l28.36 6.56a1.958 1.958 0 0 1 1.48 2.359z"/><path d="M278.285 0H79.165c-24.301 0-44 19.699-44 44v39.8a8 8 0 0 0 8 8h67.36l.04 225.84a30.645 30.645 0 0 0 6.32 19.36 21.92 21.92 0 0 0 25.56 6.84 40 40 0 0 0 18.84-17.12l49.08-78.28 49.2 78.24a40 40 0 0 0 18.84 17.12 21.92 21.92 0 0 0 25.56-6.84 30.645 30.645 0 0 0 6.32-19.36V32c0-17.673-14.327-32-32-32zm-167.76 75.64h-59.16v-31.6a27.6 27.6 0 0 1 8-19.56c12.193-11.101 30.826-11.118 43.04-.04l.36.36a27.642 27.642 0 0 1 7.76 19.2v31.64zm180.6 251.32a6.32 6.32 0 0 1-3.12 2.2 6.638 6.638 0 0 1-4-.36 24.72 24.72 0 0 1-10.72-10.96l-56-89.04a8 8 0 0 0-13.72 0l-56.24 89.36a24.72 24.72 0 0 1-10.88 10.64 6.638 6.638 0 0 1-4 .36 6.32 6.32 0 0 1-3.12-2.2 14.682 14.682 0 0 1-2.72-9.24V44.08a43.602 43.602 0 0 0-9.96-27.76h161.441c8.65.129 15.63 7.11 15.759 15.76v285.64c.158 3.298-.8 6.553-2.72 9.24z"/></svg>